<svg width="599" height="476" viewBox="0 0 599 476" fill="none" xmlns="http://www.w3.org/2000/svg">
<rect x="439.046" y="303.804" width="89.2449" height="89.2449" fill="#1283D6"/>
<path d="M589.262 468.69L488.662 368.09H589.262V468.69Z" fill="white" stroke="black" stroke-width="3"/>
<circle cx="527.75" cy="34.75" r="33.25" fill="white" stroke="black" stroke-width="3"/>
<path d="M521.901 34.75H534.976" stroke="black" stroke-width="3"/>
<path d="M516.396 16.5L527.75 27.854L539.104 16.5" stroke="black" stroke-width="3"/>
<path d="M539.104 52.9852L527.75 41.6313L516.396 52.9852" stroke="black" stroke-width="3"/>
<rect x="496.5" y="221" width="93" height="83" fill="white" stroke="black" stroke-width="3"/>
<path d="M537.514 261.751L545.742 269.929L559.457 255.618" stroke="black" stroke-width="3"/>
<rect x="392.5" y="135.85" width="134" height="85" fill="white" stroke="black" stroke-width="3"/>
<rect x="212.628" y="37.198" width="178.922" height="122.629" fill="white" stroke="black" stroke-width="3"/>
<rect x="89.5" y="77.0149" width="123" height="123" fill="white" stroke="black" stroke-width="3"/>
<path d="M107.967 127.843V178.794H121.738M107.967 127.843V113.384L150.656 96.8591L193.344 113.384V127.843M107.967 127.843H121.738M193.344 127.843V178.794H179.918M193.344 127.843H179.918M121.738 127.843V178.794M121.738 127.843H179.918M121.738 178.794H139.295M179.918 127.843V178.794M179.918 178.794H162.705M139.295 178.794V145.056H162.705V178.794M139.295 178.794H162.705" stroke="black" stroke-width="3"/>
<rect x="89.5" y="45" width="32" height="32" fill="white" stroke="black" stroke-width="3"/>
<path d="M97.6081 58.9411L103.098 64.4313L112.02 55.5098" stroke="black" stroke-width="3"/>
<path d="M445.911 339.131H173.371L95.7963 277.346C95.7963 246.454 126.689 229.978 147.284 229.978C147.284 214.188 143.851 198.399 166.506 170.939C198.772 139.36 235.156 143.479 248.886 153.776C262.616 126.316 296.941 107.781 327.147 107.781C391.678 107.781 422.57 166.133 422.57 190.161C484.355 181.236 510.442 230.664 510.442 264.989C510.442 313.044 468.566 339.131 445.911 339.131Z" fill="white" stroke="black" stroke-width="3"/>
<path d="M281.837 204.577V168.192C293.508 168.192 317.535 156.522 329.206 146.224L347.741 163.387V204.577L324.4 235.469H305.178L281.837 204.577Z" stroke="black" stroke-width="3"/>
<path d="M276.345 184.668H281.837V168.192C293.508 168.192 317.535 156.522 329.206 146.224L347.741 163.387V172.998H353.233V140.046C353.233 122.197 338.13 102.288 313.416 102.288C290.075 102.288 276.345 125.629 276.345 135.927V184.668Z" fill="black"/>
<path d="M292.135 218.307L283.897 259.497M283.897 259.497L233.782 280.092L211.128 339.13M283.897 259.497L314.789 300M314.789 300V339.13M314.789 300L345.681 259.497M345.681 259.497L337.443 218.307M345.681 259.497L395.796 280.092L418.45 339.13" stroke="black" stroke-width="3"/>
<rect x="173.65" y="339.2" width="141.165" height="125.375" fill="white" stroke="black" stroke-width="3"/>
<rect x="264.5" y="340.75" width="48.7414" height="48.7414" fill="#47DEA8"/>
<rect x="67.5" y="339.2" width="106.153" height="55.3524" fill="white" stroke="black" stroke-width="3"/>
<path d="M100.325 356.236L111.996 367.906L100.325 379.577" stroke="black" stroke-width="3"/>
<path d="M138.083 356.236L126.412 367.906L138.083 379.577" stroke="black" stroke-width="3"/>
<rect x="0.789978" y="222.86" width="48.7414" height="48.7414" fill="#47DEA8"/>
<rect x="2.29034" y="273.1" width="171.371" height="66.0645" fill="white" stroke="black" stroke-width="3"/>
<path d="M28.2503 314.6H19.1303V294.59H28.0403C29.7603 294.59 31.1203 295.06 32.1203 296C33.1403 296.94 33.6503 298.17 33.6503 299.69C33.6503 300.89 33.3103 301.91 32.6303 302.75C31.9503 303.57 31.1203 304.08 30.1403 304.28C31.2003 304.44 32.1103 305 32.8703 305.96C33.6503 306.92 34.0403 308 34.0403 309.2C34.0403 310.82 33.5203 312.13 32.4803 313.13C31.4603 314.11 30.0503 314.6 28.2503 314.6ZM27.6203 303.26C28.7203 303.26 29.5703 302.96 30.1703 302.36C30.7703 301.76 31.0703 300.99 31.0703 300.05C31.0703 299.11 30.7603 298.34 30.1403 297.74C29.5403 297.12 28.7003 296.81 27.6203 296.81H21.6203V303.26H27.6203ZM27.7403 312.38C28.9003 312.38 29.8103 312.07 30.4703 311.45C31.1303 310.83 31.4603 309.99 31.4603 308.93C31.4603 307.95 31.1303 307.13 30.4703 306.47C29.8303 305.81 28.9203 305.48 27.7403 305.48H21.6203V312.38H27.7403ZM52.2175 312.8C50.8375 314.24 48.8175 314.96 46.1575 314.96C43.4975 314.96 41.4675 314.24 40.0675 312.8C38.6875 311.34 37.9975 309.35 37.9975 306.83V294.59H40.4875V306.77C40.4875 308.63 40.9775 310.09 41.9575 311.15C42.9375 312.21 44.3375 312.74 46.1575 312.74C47.9775 312.74 49.3775 312.21 50.3575 311.15C51.3375 310.09 51.8275 308.63 51.8275 306.77V294.59H54.3175V306.8C54.3175 309.34 53.6175 311.34 52.2175 312.8ZM65.4834 314.96C62.2434 314.96 59.6834 313.9 57.8034 311.78L59.2734 309.89C60.9734 311.79 63.0734 312.74 65.5734 312.74C67.1934 312.74 68.3834 312.4 69.1434 311.72C69.9034 311.02 70.2834 310.21 70.2834 309.29C70.2834 308.59 70.0634 308 69.6234 307.52C69.1834 307.04 68.6134 306.67 67.9134 306.41C67.2334 306.13 66.4634 305.88 65.6034 305.66C64.7634 305.44 63.9234 305.2 63.0834 304.94C62.2434 304.66 61.4734 304.33 60.7734 303.95C60.0934 303.57 59.5334 303.03 59.0934 302.33C58.6534 301.63 58.4334 300.8 58.4334 299.84C58.4334 298.2 59.0834 296.87 60.3834 295.85C61.6834 294.81 63.3234 294.29 65.3034 294.29C68.2834 294.29 70.6534 295.22 72.4134 297.08L70.9134 298.91C69.4534 297.31 67.5234 296.51 65.1234 296.51C63.9234 296.51 62.9334 296.81 62.1534 297.41C61.3934 297.99 61.0134 298.75 61.0134 299.69C61.0134 300.39 61.3034 300.97 61.8834 301.43C62.4834 301.89 63.2134 302.23 64.0734 302.45C64.9534 302.67 65.9034 302.95 66.9234 303.29C67.9634 303.61 68.9134 303.96 69.7734 304.34C70.6534 304.7 71.3834 305.29 71.9634 306.11C72.5634 306.93 72.8634 307.92 72.8634 309.08C72.8634 310.72 72.2534 312.11 71.0334 313.25C69.8334 314.39 67.9834 314.96 65.4834 314.96ZM79.0715 314.6H76.5815V294.59H79.0715V314.6ZM100.319 314.6H97.9193L86.2493 298.64V314.6H83.7593V294.59H86.3093L97.8293 310.22V294.59H100.319V314.6ZM118.109 314.6H104.999V294.59H118.109V296.81H107.489V303.26H117.899V305.48H107.489V312.38H118.109V314.6ZM128.56 314.96C125.32 314.96 122.76 313.9 120.88 311.78L122.35 309.89C124.05 311.79 126.15 312.74 128.65 312.74C130.27 312.74 131.46 312.4 132.22 311.72C132.98 311.02 133.36 310.21 133.36 309.29C133.36 308.59 133.14 308 132.7 307.52C132.26 307.04 131.69 306.67 130.99 306.41C130.31 306.13 129.54 305.88 128.68 305.66C127.84 305.44 127 305.2 126.16 304.94C125.32 304.66 124.55 304.33 123.85 303.95C123.17 303.57 122.61 303.03 122.17 302.33C121.73 301.63 121.51 300.8 121.51 299.84C121.51 298.2 122.16 296.87 123.46 295.85C124.76 294.81 126.4 294.29 128.38 294.29C131.36 294.29 133.73 295.22 135.49 297.08L133.99 298.91C132.53 297.31 130.6 296.51 128.2 296.51C127 296.51 126.01 296.81 125.23 297.41C124.47 297.99 124.09 298.75 124.09 299.69C124.09 300.39 124.38 300.97 124.96 301.43C125.56 301.89 126.29 302.23 127.15 302.45C128.03 302.67 128.98 302.95 130 303.29C131.04 303.61 131.99 303.96 132.85 304.34C133.73 304.7 134.46 305.29 135.04 306.11C135.64 306.93 135.94 307.92 135.94 309.08C135.94 310.72 135.33 312.11 134.11 313.25C132.91 314.39 131.06 314.96 128.56 314.96ZM146.138 314.96C142.898 314.96 140.338 313.9 138.458 311.78L139.928 309.89C141.628 311.79 143.728 312.74 146.228 312.74C147.848 312.74 149.038 312.4 149.798 311.72C150.558 311.02 150.938 310.21 150.938 309.29C150.938 308.59 150.718 308 150.278 307.52C149.838 307.04 149.268 306.67 148.568 306.41C147.888 306.13 147.118 305.88 146.258 305.66C145.418 305.44 144.578 305.2 143.738 304.94C142.898 304.66 142.128 304.33 141.428 303.95C140.748 303.57 140.188 303.03 139.748 302.33C139.308 301.63 139.088 300.8 139.088 299.84C139.088 298.2 139.738 296.87 141.038 295.85C142.338 294.81 143.978 294.29 145.958 294.29C148.938 294.29 151.308 295.22 153.068 297.08L151.568 298.91C150.108 297.31 148.178 296.51 145.778 296.51C144.578 296.51 143.588 296.81 142.808 297.41C142.048 297.99 141.668 298.75 141.668 299.69C141.668 300.39 141.958 300.97 142.538 301.43C143.138 301.89 143.868 302.23 144.728 302.45C145.608 302.67 146.558 302.95 147.578 303.29C148.618 303.61 149.568 303.96 150.428 304.34C151.308 304.7 152.038 305.29 152.618 306.11C153.218 306.93 153.518 307.92 153.518 309.08C153.518 310.72 152.908 312.11 151.688 313.25C150.488 314.39 148.638 314.96 146.138 314.96Z" fill="black"/>
<circle cx="212.158" cy="36.0412" r="8.58124" fill="black"/>
<circle cx="526.574" cy="132.151" r="8.58124" fill="black"/>
<circle cx="590.419" cy="304.581" r="8.58124" fill="black"/>
<circle cx="589.438" cy="368.601" r="8.58124" fill="black"/>
<circle cx="589.438" cy="467.163" r="8.58124" fill="black"/>
<circle cx="314.446" cy="465.103" r="8.58124" fill="black"/>
<circle cx="171.654" cy="465.103" r="8.58124" fill="black"/>
<circle cx="171.654" cy="396.453" r="8.58124" fill="black"/>
</svg>
